<?xml version="1.0" encoding="UTF-8" standalone="no"?>
<!-- Created with Inkscape (http://www.inkscape.org/) -->

<svg
   width="128"
   height="128"
   viewBox="0 0 128 128.00001"
   version="1.1"
   id="svg1"
   xmlns="http://www.w3.org/2000/svg"
   xmlns:svg="http://www.w3.org/2000/svg">
  <defs
     id="defs1" />
  <g
     id="layer1">
    <g
       id="g14"
       transform="matrix(4.1367136,0,0,4.1367136,-14.13075,-757.62957)">
      <rect
         style="fill:#00804b;fill-opacity:1;fill-rule:evenodd"
         id="rect1"
         width="128"
         height="128"
         x="0"
         y="0"
         transform="matrix(0.2417378,0,0,0.2417378,3.4159363,183.1477)" />
      <path
         id="path1"
         style="opacity:1;fill:#ffffff;fill-opacity:1;stroke:none;stroke-width:0.929481;stroke-linecap:round;stroke-linejoin:round;stroke-dasharray:none;stroke-dashoffset:0;stroke-opacity:1;paint-order:markers stroke fill"
         d="m 14.029382,185.16608 c -0.176659,-0.0276 -0.363298,0.11975 -0.329179,0.33021 l 1.404049,8.65787 c 0.04146,0.25555 -0.282551,0.40163 -0.444934,0.19999 l -1.343071,-1.66863 c -0.227638,-0.28267 -0.682752,-0.1592 -0.734839,0.19998 l -0.345198,2.37609 h -1.670699 c -0.430366,0 -0.7026779,0.46084 -0.497644,0.83922 l 1.372009,2.53111 -2.3326741,2.01538 c -0.2427866,0.20981 -0.08979,0.60765 0.2309936,0.59997 l 2.5114745,-0.0589 0.947229,5.05395 c -1.942814,1.94282 -1.846122,1.27076 -1.462443,2.11977 l 1.581324,2.85613 c 0.247144,0.44638 0.861026,0.81697 1.371173,0.82626 1.603799,0.0292 3.035347,0.0423 4.599497,0.0177 1.564193,0.0246 2.996873,0.012 4.601073,-0.0174 0.510133,-0.009 1.124003,-0.38011 1.371147,-0.82649 l 1.581324,-2.85613 c 0.383679,-0.84901 0.48038,-0.17695 -1.462443,-2.11977 l 0.947229,-5.05395 2.510958,0.0589 c 0.320781,0.008 0.474296,-0.39016 0.23151,-0.59997 l -2.333191,-2.01538 1.372526,-2.53111 c 0.205035,-0.37838 -0.06933,-0.83922 -0.499711,-0.83922 H 25.53824 l -0.345198,-2.37609 c -0.0521,-0.35918 -0.507199,-0.48265 -0.734839,-0.19998 l -1.343071,1.66863 c -0.162382,0.20164 -0.486391,0.0556 -0.444934,-0.19999 l 1.404049,-8.65787 c 0.04549,-0.2806 -0.301295,-0.44925 -0.494027,-0.2403 l -1.661397,1.80144 c -0.327116,0.35469 -0.901399,0.30466 -1.162203,-0.10128 l -0.131775,-0.20464 c -0.147582,-0.22969 -0.503851,-0.12208 -0.499194,0.1509 l 0.117305,6.84196 c 0.009,0.52323 -0.414086,0.95078 -0.93741,0.94877 H 18.88645 18.468388 c -0.523326,0.002 -0.945828,-0.42554 -0.936894,-0.94877 l 0.116789,-6.84196 c 0.0047,-0.27299 -0.351102,-0.38061 -0.498678,-0.1509 l -0.131775,0.20464 c -0.260804,0.40594 -0.835087,0.45596 -1.162203,0.10128 l -1.661397,-1.80144 c -0.04818,-0.0522 -0.105962,-0.0807 -0.164848,-0.0899 z m 1.270724,18.32601 0.331245,0.0145 c 0.282197,0.0123 0.528311,0.19657 0.619084,0.46405 l 0.555522,1.63815 c 0.08655,0.25502 -0.09774,0.52116 -0.366903,0.5302 l -0.245463,0.008 v 5.2e-4 c -0.167127,0.006 -0.317585,-0.0996 -0.370003,-0.25839 l -0.310576,-0.94102 h -0.528649 l -0.0801,0.94774 c -0.01417,0.16686 -0.155011,0.2945 -0.322461,0.29249 l -0.307475,-0.004 c -0.189959,-0.002 -0.323379,-0.18731 -0.266133,-0.36845 l 0.575675,-1.82263 c 0.09788,-0.30973 0.391714,-0.51541 0.716236,-0.50126 z m 7.174239,0 c 0.32452,-0.0142 0.618355,0.19153 0.716235,0.50126 l 0.575675,1.82263 c 0.05725,0.18114 -0.07669,0.36619 -0.26665,0.36845 l -0.306958,0.004 c -0.16745,0.002 -0.30829,-0.12563 -0.322461,-0.29249 l -0.08062,-0.94774 h -0.528133 l -0.310576,0.94102 c -0.05242,0.15879 -0.202876,0.2639 -0.370003,0.25839 v -5.2e-4 l -0.245463,-0.008 c -0.269167,-0.009 -0.453451,-0.27518 -0.366903,-0.5302 l 0.555522,-1.63815 c 0.09077,-0.26748 0.336887,-0.45177 0.619084,-0.46405 z" />
    </g>
  </g>
</svg>
