<svg xmlns="http://www.w3.org/2000/svg" xml:space="preserve" width="146.713" height="231.271" viewBox="0 0 49.24 77.62">
  <defs>
    <clipPath id="c" clipPathUnits="userSpaceOnUse">
      <path d="m1.275 174.996 1.28 36.126a1.733 1.733 0 0 0 1.73 1.672h20.74c.554 0 1.003-.45 1.003-1.003v0l1.338-36.795H1.276z" style="display:inline;fill:#faf6f6;fill-opacity:1;stroke:#141c9a;stroke-width:1.95946;stroke-linecap:round;stroke-linejoin:round;stroke-opacity:.126459;paint-order:markers stroke fill"/>
    </clipPath>
    <clipPath id="b" clipPathUnits="userSpaceOnUse">
      <path d="m1.275 174.996 1.28 36.126a1.733 1.733 0 0 0 1.73 1.672h20.74c.554 0 1.003-.45 1.003-1.003v0l1.338-36.795H1.276z" style="display:inline;fill:#faf6f6;fill-opacity:1;stroke:#141c9a;stroke-width:1.95946;stroke-linecap:round;stroke-linejoin:round;stroke-opacity:.126459;paint-order:markers stroke fill"/>
    </clipPath>
    <clipPath id="a" clipPathUnits="userSpaceOnUse">
      <path d="m1.275 174.996 1.28 36.126a1.733 1.733 0 0 0 1.73 1.672h20.74c.554 0 1.003-.45 1.003-1.003v0l1.338-36.795H1.276z" style="display:inline;fill:#faf6f6;fill-opacity:1;stroke:#141c9a;stroke-width:1.95946;stroke-linecap:round;stroke-linejoin:round;stroke-opacity:.126459;paint-order:markers stroke fill"/>
    </clipPath>
  </defs>
  <g style="display:inline">
    <path d="m-27.748 291.413 1.012 28.575a1.37 1.37 0 0 0 1.37 1.322h16.404a.793.793 0 0 0 .793-.793v0l1.058-29.104h-20.637z" style="fill:#faf6f6;fill-opacity:1;stroke:#141c9a;stroke-width:1.54993;stroke-linecap:round;stroke-linejoin:round;stroke-opacity:.126459;paint-order:markers stroke fill" transform="matrix(2.164 0 0 2.164 62.337 -619.376)"/>
    <path d="M-26.69 286.65v1.588a.53.53 135 0 1-.529.529h-1.058a.53.53 135 0 0-.53.529v1.587a.53.53 45 0 0 .53.53h21.776a.448.448 135 0 0 .449-.449v-1.681a.516.516 45 0 0-.516-.516h-2.924l-1.9-.921c-.519-.251-1.398-.367-1.969-.28-1.214.185-3.231.423-4.531.209a242.394 242.394 0 0 1-8.28-1.547c-.286-.059-.518.13-.518.422z" style="display:inline;fill:#4a2e19;fill-opacity:1;stroke:none;stroke-width:1.54993;stroke-linecap:round;stroke-linejoin:round;stroke-opacity:1;paint-order:markers stroke fill" transform="matrix(2.164 0 0 2.164 62.337 -619.376)"/>
    <g clip-path="url(#a)" transform="matrix(1.71172 0 0 1.71172 .107 -288.301)">
      <path d="M-7.058 206.689h43.92v1.878h-43.92Z" style="opacity:.601093;fill:#4a2e19;stroke-width:.295509"/>
      <path d="M5.701 178.459c7.322 0 18.339.37 27.477.256 9.139-.114 16.444-.256 16.444-.256v18.587H5.7v-18.587" style="opacity:.601093;fill:#4a2e19;fill-opacity:1;stroke:none;stroke-width:.929481;stroke-dasharray:none;stroke-opacity:1" transform="translate(-12.76 7.814)"/>
    </g>
    <g clip-path="url(#b)" transform="matrix(1.71172 0 0 1.71172 .107 -288.301)">
      <path d="M641.796 552.457h8.452l.528-5.282 2.113.21-.528 5.072h12.572v2.007h-12.889q-1.902 10.354-9.403 17.01l-1.373-1.902q6.656-5.705 8.663-15.108h-8.135zm16.27-4.965q1.902 1.584 3.064 3.275l-1.902 1.056q-1.056-1.69-2.958-3.17zm2.641 9.508 2.113.634q-2.535 4.966-6.55 8.135v2.43q0 .74 3.064.74 2.853 0 3.17-.846.316-.95.422-3.486l2.219.634q-.212 4.014-1.162 4.86-.846.845-4.649.845-3.38 0-4.332-.528-.845-.529-.845-1.585v-1.585l-5.6 2.853-.95-1.796q3.803-1.585 6.55-3.592v-8.875h2.113v7.078q2.43-2.218 4.437-5.916z" aria-label="龙" style="font-size:27.0465px;line-height:0;font-family:System-ui;-inkscape-font-specification:System-ui;letter-spacing:-1.38px;white-space:pre;opacity:.333333;fill:#4a2e19;stroke-width:1.16657;stroke-linecap:round;stroke-linejoin:round;stroke-opacity:.395007;paint-order:markers stroke fill" transform="translate(-477.687 -232.081) scale(.74538)"/>
    </g>
    <g clip-path="url(#c)" transform="matrix(1.71172 0 0 1.71172 .107 -288.301)">
      <path d="m12.074 187.395 1.404 8.658c.042.255-.282.401-.445.2l-1.343-1.669a.416.416 0 0 0-.735.2l-.345 2.376H8.94c-.43 0-.703.461-.498.84l1.372 2.53-2.333 2.016a.341.341 0 0 0 .232.6l2.511-.059.947 5.054c-1.943 1.943-1.846 1.27-1.463 2.12l2.03 4.491c1.994.041 3.664.065 5.522.036 1.858.029 3.53.006 5.525-.036l2.03-4.491c.383-.85.48-.177-1.463-2.12l.947-5.054 2.511.059c.32.008.474-.39.231-.6l-2.333-2.015L26.081 198a.569.569 0 0 0-.5-.84h-1.669l-.345-2.376a.416.416 0 0 0-.735-.2l-1.343 1.669c-.162.201-.486.055-.445-.2l1.404-8.658a.287.287 0 0 0-.494-.24l-1.661 1.801a.737.737 0 0 1-1.162-.1l-.132-.206a.271.271 0 0 0-.499.151l.117 6.842a.933.933 0 0 1-.937.949h-.837a.933.933 0 0 1-.937-.95l.117-6.84a.271.271 0 0 0-.5-.152l-.131.205a.737.737 0 0 1-1.162.101l-1.662-1.801a.287.287 0 0 0-.494.24z" style="fill:#fff;fill-opacity:1;stroke:#4a2e19;stroke-width:.929481;stroke-linecap:round;stroke-linejoin:round;stroke-dasharray:none;stroke-dashoffset:0;stroke-opacity:1;paint-order:markers stroke fill"/>
      <path d="m81.937 11.843-.562-1.124m2.408 1.124.562-1.124" style="display:inline;fill:#4a2e19;fill-opacity:1;stroke:#4a2e19;stroke-width:1.00004;stroke-linecap:round;stroke-linejoin:round;stroke-dasharray:none;stroke-dashoffset:0;stroke-opacity:1;paint-order:markers stroke fill" transform="translate(-65.913 198.736) scale(1.00379)"/>
      <path d="m31.069 187.015-.245-.008a.4.4 55.317 0 1-.365-.528l.554-1.632a.682.682 143.127 0 1 .616-.462l.33-.015a.715.715 34.986 0 1 .714.5l.573 1.815a.282.282 125.89 0 1-.265.367l-.306.004a.318.318 42.232 0 1-.321-.291l-.08-.945h-.527l-.31.938a.375.375 145.078 0 1-.368.257z" style="display:inline;fill:#4a2e19;fill-opacity:1;stroke:none;stroke-width:1.00004;stroke-linecap:round;stroke-linejoin:round;stroke-dasharray:none;stroke-dashoffset:0;stroke-opacity:1;paint-order:markers stroke fill" transform="translate(-11.244 20.345) scale(1.00379)"/>
      <path d="m31.069 187.015-.245-.008a.4.4 55.317 0 1-.365-.528l.554-1.632a.682.682 143.127 0 1 .616-.462l.33-.015a.715.715 34.986 0 1 .714.5l.573 1.815a.282.282 125.89 0 1-.265.367l-.306.004a.318.318 42.232 0 1-.321-.291l-.08-.945h-.527l-.31.938a.375.375 145.078 0 1-.368.257z" style="display:inline;fill:#4a2e19;fill-opacity:1;stroke:none;stroke-width:1.00004;stroke-linecap:round;stroke-linejoin:round;stroke-dasharray:none;stroke-dashoffset:0;stroke-opacity:1;paint-order:markers stroke fill" transform="matrix(-1.0038 0 0 1.0038 45.755 20.322)"/>
    </g>
  </g>
</svg>
