<svg class="logo-header" xmlns="http://www.w3.org/2000/svg" xml:space="preserve" width="87.555" height="128.826"
  viewBox="0 0 29.385 43.237">
  <g style="display:inline">
    <g class="logo__body">
      <path
        d="M191.222 243.1c-2.733 0-6.391 1.405-6.391 1.405s-.584 5.123-.192 8.052c.067.495.562.993 1.055 1.071 2.26.359 5.293.114 6.854-.057.566-.062 1.145-.572 1.268-1.129.53-2.409.616-4.663.616-7.253 0-.794-.782-1.546-1.523-1.832-.476-.183-1.057-.258-1.687-.257z"
        style="fill:#007954;stroke-width:2.4;stroke-linecap:round;stroke-linejoin:round;paint-order:markers stroke fill"
        transform="matrix(.86507 0 0 .86507 -138.812 -179.102)" />
      <path
        d="M22.39 193.713c-3.188-.854-5.093-.545-5.523 1.06-.102.384.135.814.357 1.113.165.22.103.374-.172.39-7.455.462-4.512 11.359-4.126 14.238.037.274-.02.715-.1.978-.37 1.199-.924 2.604-.748 3.473.362 1.789 1.45 1.424 2.122.634a.512.512 0 0 1 .686-.106c.916.578 2.78 1.277 3.991 1.602 10.29 2.764 12.807-6.05 12.807-6.05 1.872-6.984 3.092-4.283 2.778-3.687-.681 2.542 1.227 5.184 2.038 4.837-1.512-1.351-.252-3.217.145-5.499 0-3.224-3.647-3.08-3.647-3.08-2.946.024-2.188 2.688-3.39 4.771-2.71 4.692-7.771 1.93-7.771 1.93.967-1.674-.961-2.56-2.025-2.747-.271-.048-.56-.246-.617-.516-.457-2.177.348-3.421.83-4.194 1.746-2.792 5.736-2.389 7.323-2.03.27.06.398.335.313.598-.953 2.945 1.482 2.681 2.37 1.878 3.902-3.528 3.777-4.648 4.795-7.408 1.304-3.537 1.471-8.734 1.471-8.734l2.193-.046a.49.49 116.04 0 0 .381-.782l-1.614-2.165 2.632-1.392a.422.422 86.114 0 0-.052-.77l-2.002-.732 1.43-3.343a.378.378 44.82 0 0-.498-.495l-3.467 1.508a.345.345 46.53 0 1-.446-.471l2.59-5.18a.54.54 56.17 0 0-.523-.78l-1.963.145-.551-1.946a.279.279.552 0 0-.536-.005l-1.861 6.12a1.288 1.288 143.336 0 1-1.227.912l-1.953.008a.93.93 45.367 0 1-.933-.945l.132-7.765-1.157 1.802-2.944-3.191 1.551 9.563a.251.251 155.972 0 1-.443.197l-1.339-1.662a.414.414 164.704 0 0-.732.2l-.343 2.368h-1.663a.566.566 120.774 0 0-.497.835l1.366 2.522-2.324 2.008a.34.34 68.898 0 0 .231.598l2.502-.06.943 4.197c-1.935 1.935-2.002 2.028-2.111 2.95-.11.921.12 1.146 1.32 2.346z"
        style="fill:#007954;fill-opacity:1;stroke:none;stroke-width:.370417;stroke-linecap:round;stroke-linejoin:round;stroke-dasharray:none;stroke-dashoffset:0;stroke-opacity:1;paint-order:markers stroke fill"
        transform="matrix(.86507 0 0 .86507 -10.408 -145.03)" />
    </g>
    <g class="logo_others">
      <path
        d="m185.805 244.776 5.379-1.052s1.418-.234 1.838.492c.42.727-1.043 1.122-1.043 1.122s-4.433.374-6.104.374c-.501-.29-.474-.703-.07-.936z"
        style="fill:##4A2E19;fill-opacity:1;stroke:none;stroke-width:.66675;stroke-linecap:round;stroke-linejoin:round;stroke-dasharray:none;stroke-dashoffset:0;stroke-opacity:1;paint-order:markers stroke fill"
        transform="matrix(.86507 0 0 .86507 -138.812 -179.102)" />
      <path d="m142.095 108.821.364 1.23"
        style="fill:##4A2E19;fill-opacity:1;stroke:#4a2e19;stroke-width:.561058;stroke-linecap:round;stroke-linejoin:round;stroke-dasharray:none;stroke-dashoffset:0;stroke-opacity:1;paint-order:markers stroke fill"
        transform="matrix(.86507 0 0 .86507 -113.29 -74.468)" />
      <path d="m145.89 109.131-.562 1.125"
        style="fill:##4A2E19;fill-opacity:1;stroke:#4a2e19;stroke-width:.66675;stroke-linecap:round;stroke-linejoin:round;stroke-dasharray:none;stroke-dashoffset:0;stroke-opacity:1;paint-order:markers stroke fill"
        transform="matrix(.86507 0 0 .86507 -113.29 -74.468)" />
      <path
        d="m31.069 187.015-.245-.008a.4.4 55.317 0 1-.365-.528l.554-1.632a.682.682 143.127 0 1 .616-.462l.33-.015a.715.715 34.986 0 1 .714.5l.573 1.815a.282.282 125.89 0 1-.265.367l-.306.004a.318.318 42.232 0 1-.321-.291l-.08-.945h-.527l-.31.938a.375.375 145.078 0 1-.368.257z"
        style="fill:##4A2E19;fill-opacity:1;stroke:none;stroke-width:.66675;stroke-linecap:round;stroke-linejoin:round;stroke-dasharray:none;stroke-dashoffset:0;stroke-opacity:1;paint-order:markers stroke fill"
        transform="matrix(.86507 0 0 .86507 -10.884 -144.021)" />
      <path
        d="m31.069 187.015-.245-.008a.4.4 55.317 0 1-.365-.528l.554-1.632a.682.682 143.127 0 1 .616-.462l.33-.015a.715.715 34.986 0 1 .714.5l.573 1.815a.282.282 125.89 0 1-.265.367l-.306.004a.318.318 42.232 0 1-.321-.291l-.08-.945h-.527l-.31.938a.375.375 145.078 0 1-.368.257z"
        style="fill:##4A2E19;fill-opacity:1;stroke:none;stroke-width:.66675;stroke-linecap:round;stroke-linejoin:round;stroke-dasharray:none;stroke-dashoffset:0;stroke-opacity:1;paint-order:markers stroke fill"
        transform="matrix(-.59204 0 0 .86507 29.673 -144.221)" />
    </g>
  </g>
</svg>